<?xml version="1.0" standalone="no"?>
<!DOCTYPE svg PUBLIC "-//W3C//DTD SVG 20010904//EN"
 "http://www.w3.org/TR/2001/REC-SVG-20010904/DTD/svg10.dtd">
<svg version="1.0" xmlns="http://www.w3.org/2000/svg"
 width="300.000000pt" height="150.000000pt" viewBox="0 0 300.000000 150.000000"
 preserveAspectRatio="xMidYMid meet">
<metadata>
Created by potrace 1.10, written by Peter Selinger 2001-2011
</metadata>
<g transform="translate(0.000000,150.000000) scale(0.100000,-0.100000)"
fill="#000000" stroke="none">
<path d="M1440 1435 c-54 -56 -130 -87 -214 -88 -92 0 -147 17 -259 81 -31 18
-61 31 -66 28 -15 -9 -20 -207 -10 -371 25 -390 133 -670 339 -875 72 -73 191
-160 238 -174 31 -10 119 34 210 107 157 125 259 269 330 467 41 114 60 185
67 245 3 28 8 61 11 74 23 108 24 541 1 541 -6 0 -33 -18 -61 -39 -76 -59
-139 -83 -221 -85 -101 -2 -193 30 -277 95 -20 16 -41 29 -45 29 -5 0 -25 -16
-43 -35z m88 -55 c87 -69 219 -105 310 -85 53 12 142 54 142 67 0 5 5 8 10 8
6 0 19 9 30 20 11 11 24 20 29 20 17 0 24 -109 18 -274 -14 -387 -113 -665
-310 -868 -72 -73 -131 -117 -218 -158 -72 -34 -76 -33 -182 39 -123 83 -231
209 -301 351 -51 105 -107 306 -125 455 -14 118 -15 425 0 425 5 0 7 5 4 10
-3 6 -3 10 0 10 8 0 69 -31 75 -39 7 -9 97 -48 141 -61 38 -11 179 -12 179 -1
0 3 18 14 39 25 22 10 54 34 72 52 18 19 37 34 42 34 4 0 25 -13 45 -30z"/>
<path d="M1455 1352 c-17 -15 -41 -35 -55 -45 -16 -11 -9 -10 18 4 23 13 42
26 42 31 0 18 47 5 80 -22 19 -17 42 -30 52 -30 10 0 18 -4 18 -10 0 -5 11
-10 25 -10 13 0 43 -7 65 -16 31 -13 57 -15 111 -10 78 8 129 23 129 38 0 6 6
5 15 -2 14 -11 19 -7 16 12 0 4 7 4 16 1 12 -5 14 -3 8 7 -5 8 -4 11 2 7 16
-10 25 -87 13 -102 -8 -9 -8 -15 0 -20 17 -10 11 -32 -10 -38 -14 -3 -20 -14
-20 -32 0 -14 4 -24 8 -21 4 2 9 -4 9 -15 1 -12 -7 -24 -20 -29 -21 -10 -21
-10 3 -8 14 1 31 -1 38 -5 16 -11 16 -37 -1 -37 -8 0 -13 -24 -14 -82 -2 -102
-16 -178 -35 -192 -7 -6 -14 -20 -13 -31 0 -37 -38 -126 -53 -120 -7 3 -10 0
-7 -6 4 -5 -5 -22 -19 -36 -18 -17 -25 -33 -21 -47 3 -12 2 -15 -1 -8 -10 23
-21 12 -20 -21 1 -25 -3 -32 -16 -31 -11 1 -18 -5 -18 -16 0 -15 -9 -29 -50
-77 -8 -9 -7 -13 1 -13 7 0 9 -3 5 -8 -7 -7 -12 -8 -38 -11 -6 0 -8 -4 -5 -8
4 -3 -3 -11 -16 -18 -12 -6 -21 -17 -20 -23 2 -7 -4 -12 -12 -12 -9 0 -18 -7
-21 -15 -4 -9 -25 -24 -48 -34 -22 -11 -40 -23 -38 -26 2 -4 -9 -16 -25 -27
-56 -40 12 -6 79 38 172 115 296 292 373 535 40 129 56 267 53 476 l-3 183
-30 -26 c-122 -105 -313 -106 -460 -3 -31 21 -57 39 -58 39 -1 0 -16 -13 -32
-28z"/>
<path d="M946 1362 c-3 -3 -6 -82 -6 -176 0 -414 92 -696 294 -904 98 -102
266 -205 266 -163 0 6 -6 11 -13 11 -7 0 -30 15 -50 34 -21 19 -38 28 -41 22
-3 -7 -9 -4 -16 7 -6 9 -17 17 -24 17 -16 0 -96 77 -88 85 3 3 -1 5 -9 5 -8 0
-22 12 -33 26 -15 22 -16 28 -5 35 10 7 6 8 -11 4 -22 -5 -30 3 -75 77 -59 97
-107 210 -129 305 -9 37 -21 84 -26 103 -25 96 -42 500 -21 500 5 0 11 -3 13
-7 7 -17 155 -79 165 -70 3 4 -3 9 -13 12 -10 3 -54 23 -96 44 -42 22 -79 36
-82 33z"/>
<path d="M1340 1280 c-8 -5 -27 -10 -42 -10 -16 0 -28 -4 -28 -9 0 -11 81 6
95 20 12 12 -5 12 -25 -1z"/>
<path d="M1163 1263 c9 -2 25 -2 35 0 9 3 1 5 -18 5 -19 0 -27 -2 -17 -5z"/>
<path d="M1745 1172 c-2 -2 -22 -4 -45 -4 -22 0 -40 -4 -40 -9 0 -6 5 -7 10
-4 6 4 17 1 25 -5 9 -8 15 -8 15 -2 0 13 88 14 95 1 4 -5 14 -4 24 3 11 7 26
8 37 3 11 -5 24 -7 29 -6 35 9 50 9 66 0 20 -10 24 -3 11 17 -7 11 -217 16
-227 6z"/>
<path d="M995 1100 c0 -25 5 -40 13 -40 7 0 12 14 12 36 0 19 4 33 8 30 5 -3
8 -19 7 -36 -1 -19 3 -30 11 -30 8 0 13 14 12 40 0 38 -2 40 -32 40 -30 0 -31
-2 -31 -40z"/>
<path d="M1081 1119 c6 -12 9 -30 6 -40 -3 -12 0 -19 9 -19 8 0 14 6 14 14 0
8 6 17 13 20 10 5 10 7 0 12 -18 8 -16 27 2 20 8 -3 15 -1 15 4 0 6 -16 10
-35 10 -33 0 -35 -2 -24 -21z"/>
<path d="M1164 1124 c3 -9 6 -27 6 -40 0 -13 4 -24 10 -24 5 0 7 7 4 15 -8 21
13 19 25 -2 12 -23 18 -16 23 26 2 20 -2 36 -9 38 -7 3 -9 -4 -6 -19 l6 -23
-25 23 c-28 26 -43 29 -34 6z"/>
<path d="M1262 1128 c-16 -16 -15 -48 2 -70 15 -20 42 -25 30 -6 -5 7 -2 9 8
6 12 -5 15 2 14 35 -1 34 -5 43 -21 45 -11 1 -26 -3 -33 -10z m38 -28 c0 -31
-16 -41 -26 -15 -8 19 2 45 16 45 5 0 10 -13 10 -30z"/>
<path d="M1345 1120 c5 -16 63 -84 66 -77 0 1 1 23 2 50 2 40 -1 47 -17 47
-15 0 -16 -3 -6 -15 7 -9 10 -18 6 -22 -3 -4 -13 3 -22 15 -19 27 -37 29 -29
2z"/>
<path d="M1435 1100 c0 -25 5 -40 13 -40 7 0 12 13 12 30 0 17 0 33 1 38 0 4
-6 8 -13 10 -10 2 -14 -9 -13 -38z"/>
<path d="M1530 1097 c0 -24 -4 -47 -10 -53 -12 -12 4 -39 19 -30 6 4 9 12 6
17 -4 5 -3 9 2 9 4 0 8 22 8 50 0 33 -4 50 -12 50 -9 0 -13 -15 -13 -43z"/>
<path d="M1580 1112 c0 -30 29 -72 48 -72 16 0 32 34 32 69 0 19 -5 31 -13 31
-9 0 -12 -11 -9 -35 3 -27 1 -35 -12 -35 -12 0 -16 9 -16 35 0 24 -5 35 -15
35 -10 0 -15 -10 -15 -28z"/>
<path d="M1680 1101 c0 -23 4 -41 10 -41 5 0 7 7 4 15 -4 8 -1 15 5 15 6 0 11
-4 11 -9 0 -5 7 -11 15 -15 27 -10 16 28 -16 52 l-29 24 0 -41z"/>
<path d="M1726 1125 c5 -12 9 -13 14 -5 6 9 9 9 13 1 3 -7 5 -7 3 1 -1 7 -10
14 -19 16 -12 3 -15 -1 -11 -13z"/>
<path d="M1770 1100 c0 -22 4 -40 10 -40 15 0 29 64 16 72 -21 14 -26 8 -26
-32z"/>
<path d="M1832 1128 c-15 -15 -16 -54 -2 -63 6 -4 8 -11 5 -16 -4 -5 4 -9 16
-9 21 0 21 1 6 18 -18 20 -23 72 -8 72 14 0 23 -34 15 -56 -5 -15 -4 -16 5 -8
17 15 10 68 -9 72 -9 1 -21 -3 -28 -10z"/>
<path d="M1917 1133 c-10 -10 -8 -73 2 -73 5 0 11 18 13 40 3 38 -1 48 -15 33z"/>
<path d="M1947 1109 c-3 -11 -3 -27 0 -35 6 -16 33 -19 33 -4 0 6 -5 10 -10
10 -6 0 -8 11 -4 25 3 14 2 25 -4 25 -5 0 -12 -9 -15 -21z"/>
<path d="M1349 1079 c0 -2 -2 -12 -4 -21 -2 -10 3 -18 10 -18 7 0 12 7 11 15
-2 14 -15 33 -17 24z"/>
<path d="M1103 1043 c9 -2 25 -2 35 0 9 3 1 5 -18 5 -19 0 -27 -2 -17 -5z"/>
<path d="M1748 1043 c12 -2 32 -2 45 0 12 2 2 4 -23 4 -25 0 -35 -2 -22 -4z"/>
<path d="M1242 943 c-7 -12 -4 -22 12 -36 15 -13 16 -17 4 -14 -9 3 -19 3 -22
0 -9 -10 15 -33 34 -33 22 0 26 58 4 67 -8 3 -14 9 -14 14 0 4 7 6 15 3 8 -4
15 -1 15 5 0 17 -38 13 -48 -6z"/>
<path d="M1314 936 c-9 -36 3 -66 23 -59 11 4 14 2 9 -5 -7 -12 15 -17 27 -6
10 11 -4 33 -19 27 -17 -6 -29 20 -19 45 6 16 7 16 19 0 17 -24 25 -23 19 2
-8 30 -51 27 -59 -4z"/>
<path d="M1395 913 c1 -37 5 -49 18 -51 20 -4 23 18 5 36 -7 7 -10 12 -7 13 2
0 12 2 22 4 12 2 17 -2 16 -13 -3 -34 1 -42 21 -42 18 0 19 3 9 21 -6 12 -9
34 -7 50 3 20 0 29 -9 29 -7 0 -13 -7 -13 -15 0 -8 -7 -15 -15 -15 -8 0 -15 7
-15 15 0 8 -6 15 -13 15 -8 0 -12 -15 -12 -47z"/>
<path d="M1502 931 c-8 -22 -7 -34 4 -50 16 -23 59 -30 51 -8 -2 6 0 20 5 30
12 23 -7 57 -31 57 -12 0 -23 -11 -29 -29z m38 -17 c0 -13 -4 -24 -10 -24 -5
0 -10 14 -10 31 0 17 4 28 10 24 6 -3 10 -17 10 -31z"/>
<path d="M1588 935 c-12 -27 -2 -60 16 -55 5 1 12 -4 16 -10 4 -7 13 -9 19 -6
6 4 9 12 6 17 -4 5 -2 9 3 9 5 0 7 14 3 33 -9 43 -45 50 -63 12z m42 -21 c0
-13 -4 -24 -10 -24 -5 0 -10 14 -10 31 0 17 4 28 10 24 6 -3 10 -17 10 -31z"/>
<path d="M1675 913 c1 -46 2 -48 33 -51 25 -3 31 0 26 12 -3 9 -12 16 -20 16
-9 0 -14 11 -14 31 0 20 4 28 12 23 7 -4 8 -3 4 4 -4 7 -15 12 -24 12 -14 0
-17 -9 -17 -47z"/>
<path d="M1491 818 c-8 -10 -23 -18 -33 -18 -9 0 -20 -5 -23 -11 -4 -6 -13 -8
-20 -5 -7 2 -16 -2 -19 -10 -3 -9 -11 -12 -17 -8 -8 5 -9 3 -4 -6 6 -10 4 -12
-9 -7 -14 6 -17 3 -12 -8 3 -9 -1 -18 -8 -21 -8 -3 -17 -13 -20 -21 -9 -23 63
-213 80 -213 8 0 72 27 142 60 122 57 127 61 123 87 -7 55 -6 68 7 65 8 -1 11
2 7 8 -4 6 -13 9 -21 6 -16 -6 -39 39 -28 55 3 5 1 9 -3 9 -5 0 -14 13 -20 29
-10 27 -15 29 -58 29 -34 -1 -53 -7 -64 -20z m131 -83 c15 -44 30 -88 33 -97
4 -12 1 -18 -9 -18 -8 0 -36 -11 -61 -25 l-47 -24 17 25 c16 24 15 24 -5 12
-11 -7 -20 -23 -20 -36 0 -18 -4 -23 -16 -18 -10 4 -35 -4 -59 -19 -52 -30
-53 -29 -90 84 l-28 84 24 18 c13 11 42 24 64 30 22 6 49 19 60 29 23 20 73
40 95 37 9 -1 26 -33 42 -82z"/>
<path d="M1475 723 c4 -10 14 -37 22 -60 17 -48 33 -56 33 -17 0 17 -4 23 -12
18 -8 -5 -8 -2 1 10 12 15 12 17 0 14 -8 -2 -13 3 -11 10 1 6 -2 12 -8 12 -5
0 -7 7 -4 15 4 10 0 15 -11 15 -12 0 -15 -5 -10 -17z"/>
<path d="M1837 601 c-9 -58 -40 -128 -66 -148 -10 -8 -12 -12 -3 -13 20 0 14
-14 -15 -32 -19 -12 -23 -18 -12 -18 9 0 27 11 40 24 13 13 28 22 34 19 7 -2
12 3 12 12 0 11 -6 13 -21 9 -20 -7 -20 -6 -1 22 37 57 46 84 43 131 l-3 48
-8 -54z"/>
<path d="M1807 623 c-4 -3 -7 -13 -7 -22 -1 -9 -7 -29 -15 -46 -15 -30 -15
-30 -10 20 5 57 -5 41 -26 -38 -8 -31 -27 -65 -55 -96 -44 -48 -44 -49 -116
-53 -78 -5 -116 3 -160 34 -16 11 -28 16 -28 11 0 -10 36 -35 75 -50 17 -7 23
-12 13 -12 -20 -1 -91 30 -96 42 -2 4 -13 7 -25 7 -21 0 -21 -1 3 -20 64 -49
236 -51 307 -3 82 54 131 122 146 201 7 33 5 37 -6 25z"/>
<path d="M1505 420 c-3 -5 0 -7 8 -4 8 3 18 1 22 -5 3 -6 11 -11 18 -11 6 0 2
7 -9 15 -23 17 -31 18 -39 5z"/>
<path d="M1260 390 c0 -16 73 -59 130 -76 49 -15 80 -14 160 2 8 2 30 5 48 7
18 2 35 7 39 11 3 3 15 6 25 6 10 0 21 7 24 15 4 8 9 13 13 11 4 -3 13 -1 21
5 12 7 10 9 -7 9 -12 0 -24 -4 -27 -8 -11 -18 -126 -37 -226 -37 -102 0 -106
1 -152 32 -27 18 -48 28 -48 23z"/>
</g>
</svg>
