<?xml version="1.0" standalone="no"?>
<!DOCTYPE svg PUBLIC "-//W3C//DTD SVG 20010904//EN"
 "http://www.w3.org/TR/2001/REC-SVG-20010904/DTD/svg10.dtd">
<svg version="1.0" xmlns="http://www.w3.org/2000/svg"
 width="900.000000pt" height="450.000000pt" viewBox="0 0 900.000000 450.000000"
 preserveAspectRatio="xMidYMid meet">
<metadata>
Created by potrace 1.10, written by Peter Selinger 2001-2011
</metadata>
<g transform="translate(0.000000,450.000000) scale(0.100000,-0.100000)"
fill="#37ff00" stroke="none">
<path d="M4376 4360 c-19 -27 -47 -57 -62 -67 -15 -9 -45 -36 -68 -59 -22 -23
-60 -51 -83 -63 -23 -11 -44 -25 -48 -31 -10 -16 -86 -50 -112 -50 -13 0 -40
-11 -61 -23 -83 -53 -475 -53 -589 -1 -28 13 -59 24 -69 24 -33 0 -99 24 -131
47 -17 13 -43 23 -56 23 -13 0 -41 12 -62 26 -21 14 -48 30 -59 35 -41 18
-117 65 -145 90 -25 22 -110 69 -124 69 -4 0 -15 -12 -24 -27 -15 -22 -20 -63
-27 -238 -19 -442 -3 -932 44 -1330 6 -49 14 -120 18 -157 4 -37 13 -73 20
-80 6 -6 12 -35 12 -62 0 -29 7 -59 15 -70 9 -12 15 -42 15 -70 0 -34 7 -61
20 -81 11 -16 20 -47 20 -67 0 -20 5 -40 10 -43 6 -3 10 -21 10 -39 0 -19 7
-39 15 -46 8 -7 15 -26 15 -42 0 -43 45 -178 79 -238 5 -8 19 -46 31 -85 12
-38 26 -78 31 -87 5 -10 9 -24 9 -32 0 -7 7 -19 15 -26 8 -7 15 -22 15 -34 0
-12 5 -27 11 -33 15 -15 31 -44 74 -133 20 -41 40 -82 45 -90 6 -8 15 -26 20
-39 6 -14 27 -47 48 -75 41 -56 46 -64 82 -132 14 -26 37 -56 53 -67 15 -12
27 -29 27 -39 0 -10 7 -21 15 -24 8 -4 29 -27 46 -52 63 -93 328 -372 354
-372 6 0 35 -24 65 -53 30 -29 75 -65 100 -79 25 -14 57 -37 70 -51 14 -13 35
-27 48 -31 12 -4 22 -12 22 -17 0 -5 7 -9 15 -9 8 0 34 -13 57 -30 22 -16 47
-30 53 -30 7 0 18 -7 25 -15 18 -22 136 -75 168 -75 15 0 36 6 47 14 11 7 31
17 45 21 14 4 38 18 53 31 16 13 39 24 52 24 14 0 40 13 58 30 19 16 44 30 55
30 11 0 25 7 32 15 7 8 17 15 22 15 5 0 33 20 61 45 29 25 59 45 68 45 9 0 47
27 83 60 37 33 71 60 76 60 5 0 24 15 43 32 18 18 55 53 83 78 66 61 247 258
256 279 3 9 29 41 58 71 28 29 61 72 72 95 11 22 27 44 34 48 8 4 14 16 14 25
0 9 14 30 30 46 17 16 30 34 30 39 0 5 14 29 30 54 17 24 30 48 30 52 0 12 60
123 76 142 8 8 14 20 14 25 0 5 13 36 29 69 16 33 34 76 41 95 37 108 56 156
64 162 14 9 46 99 46 128 0 14 7 34 15 44 8 11 15 29 15 41 0 12 4 25 10 31 5
5 16 46 24 90 7 44 23 99 35 122 11 23 21 58 21 80 0 21 5 43 12 50 13 13 22
75 46 302 5 47 14 95 20 107 7 12 12 54 12 93 0 39 6 92 14 118 17 53 30 361
30 677 -1 306 -15 718 -27 733 -18 23 -58 13 -93 -23 -18 -19 -36 -35 -39 -35
-4 0 -38 -27 -75 -60 -37 -33 -75 -60 -83 -60 -9 0 -20 -7 -24 -15 -14 -25
-160 -100 -243 -125 -25 -7 -52 -20 -61 -27 -9 -7 -40 -13 -73 -13 -31 0 -73
-7 -93 -15 -45 -19 -154 -19 -217 0 -27 8 -75 15 -108 15 -42 0 -73 7 -110 25
-28 14 -59 25 -68 25 -32 0 -133 39 -142 54 -5 9 -17 16 -27 16 -24 0 -84 30
-94 47 -4 7 -17 13 -28 13 -11 0 -22 7 -26 15 -3 9 -22 24 -42 35 -21 10 -68
46 -104 79 -85 77 -103 78 -151 11z m1806 -220 c5 -47 11 -245 14 -440 7 -388
-8 -672 -47 -905 -10 -66 -24 -155 -29 -197 -6 -42 -14 -88 -20 -103 -5 -14
-10 -38 -10 -53 0 -29 -39 -189 -68 -280 -11 -31 -25 -77 -32 -102 -11 -42
-77 -233 -104 -306 -6 -18 -17 -38 -23 -45 -6 -8 -15 -27 -18 -42 -4 -15 -11
-30 -16 -33 -5 -3 -9 -12 -9 -20 0 -21 -108 -240 -126 -255 -8 -7 -22 -28 -29
-46 -17 -41 -95 -163 -104 -163 -4 0 -15 -15 -26 -32 -32 -55 -106 -150 -162
-208 -29 -30 -63 -70 -76 -88 -14 -18 -51 -56 -83 -84 -33 -28 -63 -57 -67
-64 -4 -8 -27 -27 -50 -43 -23 -17 -62 -48 -86 -70 -25 -23 -50 -41 -56 -41
-7 0 -25 -11 -41 -25 -16 -14 -32 -25 -36 -25 -4 0 -13 -6 -20 -13 -26 -24
-77 -57 -88 -57 -6 0 -26 -11 -43 -24 -18 -13 -52 -32 -77 -42 -25 -9 -54 -25
-66 -36 -11 -10 -26 -18 -32 -18 -7 0 -24 -7 -37 -16 -59 -39 -187 -12 -275
56 -19 15 -46 31 -60 35 -14 4 -32 13 -40 20 -32 28 -136 95 -147 95 -6 0 -20
11 -30 24 -10 13 -32 30 -48 39 -17 8 -69 52 -117 96 -47 45 -90 81 -96 81 -5
0 -13 9 -18 19 -5 11 -44 57 -86 103 -42 45 -91 101 -107 123 -40 52 -206 297
-226 333 -9 15 -24 41 -35 57 -11 17 -22 37 -26 45 -3 8 -10 22 -15 30 -5 8
-13 24 -18 35 -5 11 -23 50 -40 86 -17 36 -31 71 -31 76 0 6 -6 16 -14 22 -8
7 -22 41 -32 77 -9 36 -21 67 -26 70 -4 3 -8 16 -8 29 0 13 -4 27 -10 30 -6 3
-10 16 -10 28 0 12 -9 49 -20 81 -11 33 -20 74 -20 92 0 18 -4 36 -10 39 -5 3
-10 17 -10 29 0 13 -8 45 -18 72 -34 88 -52 151 -52 178 0 15 -7 43 -15 63 -8
19 -15 52 -15 72 0 20 -7 54 -15 76 -8 22 -14 57 -15 78 0 22 -7 63 -16 93
-33 113 -57 601 -51 1029 l5 329 26 21 c20 16 23 24 14 33 -8 8 -9 15 -2 22
12 12 114 -15 114 -30 0 -5 27 -23 60 -40 34 -17 63 -37 66 -45 3 -7 20 -17
37 -21 18 -3 39 -12 47 -18 8 -7 35 -20 60 -30 25 -10 67 -29 93 -42 27 -13
55 -24 64 -24 8 0 35 -9 61 -19 117 -47 344 -73 437 -50 28 6 71 12 98 11 26
0 47 3 47 8 0 17 32 40 69 50 21 5 46 19 56 30 10 11 26 20 37 20 10 0 18 4
18 10 0 5 11 12 24 16 14 3 32 14 42 25 9 10 23 19 30 19 7 0 15 9 19 19 3 11
15 23 25 26 22 7 75 57 106 99 18 25 25 27 53 21 18 -4 55 -27 83 -52 28 -25
66 -52 84 -59 18 -8 35 -18 39 -23 7 -13 93 -71 104 -71 15 0 100 -40 106 -50
3 -5 25 -14 48 -20 23 -6 62 -19 87 -29 137 -57 428 -83 502 -45 15 8 47 14
73 14 33 0 45 4 45 15 0 18 31 35 64 35 13 0 38 11 54 25 17 14 37 25 45 25 9
0 19 5 22 10 3 6 17 10 29 10 15 0 26 7 29 20 3 12 14 20 26 20 11 0 28 11 36
24 9 13 27 27 41 30 13 4 42 24 63 46 21 22 46 40 55 40 9 0 16 4 16 9 0 18
33 42 54 39 19 -3 22 -12 28 -88z"/>
<path d="M4367 4050 c-60 -63 -64 -70 -43 -70 14 0 31 9 40 21 40 57 131 62
163 8 9 -15 30 -33 45 -38 15 -6 28 -14 28 -20 0 -5 10 -13 23 -16 12 -4 38
-19 57 -34 19 -15 55 -33 80 -41 25 -7 52 -22 61 -32 11 -14 37 -22 89 -29 40
-5 81 -16 90 -24 9 -8 34 -15 56 -15 22 0 56 -9 77 -20 51 -28 268 -37 333
-15 23 8 69 13 101 12 61 -1 89 7 185 51 37 18 57 33 58 45 0 18 30 25 30 7 0
-5 9 -10 20 -10 11 0 20 -5 20 -11 0 -5 5 -7 10 -4 6 4 8 11 5 16 -4 5 2 9 12
10 10 0 13 3 6 6 -7 2 -13 11 -13 18 0 23 20 28 40 10 14 -13 23 -14 37 -7 17
10 17 11 1 17 -21 8 -24 25 -5 25 35 -1 50 -30 55 -102 2 -40 10 -91 18 -113
18 -52 19 -49 -17 -90 l-32 -36 22 -20 c15 -15 21 -31 20 -62 -2 -74 -12 -102
-37 -105 -30 -4 -30 28 0 36 21 5 21 6 2 12 -11 4 -28 1 -41 -8 -20 -12 -23
-23 -23 -83 0 -54 4 -72 19 -86 53 -50 23 -122 -51 -123 -21 0 -38 -5 -38 -10
0 -13 99 -10 121 3 27 17 80 -48 76 -93 -1 -28 -6 -35 -23 -36 -12 -1 -26 -4
-33 -8 -16 -10 -14 -56 4 -62 20 -8 19 -40 -1 -48 -12 -5 -14 -13 -8 -38 4
-18 6 -37 5 -43 0 -5 -2 -73 -4 -150 -3 -134 -15 -195 -37 -195 -6 0 -10 -33
-10 -82 -1 -61 -6 -94 -20 -123 -11 -22 -19 -45 -20 -51 0 -16 -44 -54 -63
-54 -17 0 -22 -11 -10 -23 13 -13 12 -112 -1 -132 -7 -11 -17 -36 -20 -55 -4
-19 -21 -63 -37 -97 -17 -35 -27 -67 -24 -73 3 -6 -1 -13 -9 -16 -9 -3 -16
-15 -16 -26 0 -21 -9 -21 -54 -2 -16 6 -18 4 -11 -12 20 -48 16 -59 -25 -84
-23 -14 -48 -39 -56 -57 -9 -17 -34 -51 -56 -75 -23 -23 -40 -51 -39 -61 4
-26 -14 -43 -75 -71 -30 -14 -54 -29 -54 -35 0 -5 -9 -12 -19 -16 -10 -3 -22
-17 -25 -30 -4 -14 -13 -25 -21 -25 -21 0 -114 -72 -114 -88 -1 -10 7 -12 31
-6 37 8 78 32 78 45 0 5 11 14 25 19 14 5 28 18 32 27 3 10 14 27 25 39 18 20
20 20 53 5 39 -18 43 -44 7 -49 -14 -2 -25 3 -29 15 -6 16 -8 15 -14 -7 -4
-14 -7 -39 -8 -57 -1 -17 -6 -33 -13 -35 -6 -2 -17 -20 -23 -39 -9 -26 -17
-33 -33 -31 -17 3 -22 -2 -22 -20 -1 -25 -36 -70 -63 -81 -23 -9 -22 -24 3
-32 25 -8 25 -17 0 -40 -15 -13 -24 -15 -31 -8 -17 17 -81 -24 -74 -48 6 -19
-20 -39 -52 -39 -30 0 -76 -54 -68 -79 4 -15 2 -21 -9 -21 -21 0 -66 -22 -66
-32 0 -26 -82 -98 -111 -98 -14 0 -36 -11 -49 -24 -14 -16 -36 -26 -59 -28
-29 -2 -36 -7 -34 -23 1 -11 -3 -33 -9 -48 -9 -23 -16 -27 -33 -23 -14 4 -28
0 -35 -9 -7 -8 -19 -15 -26 -15 -8 0 -14 -7 -14 -15 0 -10 -10 -15 -30 -15
-20 0 -30 -5 -30 -15 0 -18 -12 -19 -27 -4 -6 6 -30 15 -53 20 -23 5 -55 21
-70 36 -15 14 -47 35 -71 47 -29 15 -46 31 -52 51 -5 17 -14 36 -20 42 -14 19
-37 16 -37 -5 0 -10 -3 -21 -6 -25 -12 -12 -49 15 -64 46 -13 27 -21 32 -51
33 -43 1 -74 23 -130 94 -22 28 -56 61 -74 72 -19 11 -37 28 -40 39 -4 10 -13
19 -21 19 -11 0 -13 7 -8 26 6 23 4 25 -15 19 -21 -6 -29 0 -135 115 l-29 31
34 29 c27 25 30 30 13 30 -11 0 -25 -5 -31 -11 -6 -6 -25 -8 -44 -4 -35 6 -42
15 -92 105 -11 19 -32 51 -48 71 -16 20 -29 42 -29 48 0 6 -4 11 -9 11 -10 0
-21 17 -63 100 -12 25 -35 64 -50 86 -15 23 -28 46 -28 52 0 5 -7 12 -15 16
-8 3 -15 13 -15 22 0 9 -6 28 -14 42 -7 15 -24 52 -36 82 -12 30 -26 63 -31
72 -5 10 -9 26 -9 37 0 10 -7 24 -15 31 -8 7 -15 25 -15 40 0 15 -8 38 -18 51
-22 28 -42 83 -42 113 0 12 -7 34 -15 50 -8 15 -15 37 -15 48 0 11 -5 29 -11
40 -6 11 -13 33 -14 47 -2 14 -8 51 -15 81 -6 30 -14 80 -18 111 -4 31 -12 63
-18 70 -16 22 -33 88 -39 159 -3 36 -10 99 -16 140 -5 41 -14 129 -19 195 -4
66 -13 174 -20 240 -7 76 -9 217 -6 385 3 146 6 298 6 338 0 65 2 72 20 72 10
0 24 -9 30 -19 5 -11 23 -22 39 -26 16 -3 51 -22 78 -41 26 -19 58 -34 70 -34
13 0 23 -5 23 -10 0 -14 78 -49 109 -50 14 0 43 -9 65 -19 55 -27 88 -33 106
-21 23 14 -7 39 -56 46 -21 3 -53 12 -71 20 -17 8 -38 14 -46 14 -9 0 -17 3
-19 8 -1 4 -50 31 -108 59 -58 28 -112 58 -119 67 -7 9 -19 16 -25 16 -6 0
-28 14 -50 30 -77 59 -81 42 -92 -390 -9 -341 21 -864 56 -980 5 -19 10 -51
10 -70 0 -20 9 -78 20 -130 11 -52 25 -120 31 -150 6 -30 17 -68 24 -85 7 -16
16 -61 20 -100 4 -38 11 -74 15 -80 11 -14 40 -119 40 -144 0 -12 7 -24 15
-27 8 -4 15 -17 15 -31 0 -48 156 -386 233 -505 21 -32 42 -68 47 -80 6 -13
26 -43 45 -68 19 -25 48 -69 66 -98 17 -30 37 -56 45 -59 7 -3 16 -15 20 -26
4 -12 25 -41 48 -64 22 -23 59 -63 81 -88 82 -97 312 -309 380 -350 18 -11 58
-36 89 -55 32 -19 72 -44 90 -55 18 -11 49 -32 69 -47 20 -16 44 -28 54 -28
10 0 32 -9 48 -20 42 -28 120 -28 137 0 8 12 24 20 41 20 15 0 30 7 33 15 4 8
14 15 25 15 18 0 68 29 121 69 14 12 31 21 38 21 6 0 36 17 66 37 31 21 64 43
75 49 10 6 36 26 57 45 62 57 130 109 141 109 5 0 12 9 16 19 3 11 22 32 43
47 44 34 108 101 198 209 36 44 70 81 75 83 5 2 9 8 9 12 0 14 66 110 102 150
9 11 27 38 39 62 12 24 32 57 45 75 13 17 24 36 24 42 0 5 14 30 30 54 17 25
30 52 30 60 0 8 7 20 15 27 8 7 15 17 15 22 0 5 11 34 25 64 14 30 25 57 25
61 0 3 15 38 34 77 19 39 44 105 56 146 12 41 25 83 31 92 5 10 9 26 9 35 0
10 7 31 15 47 8 15 15 36 15 45 0 9 7 29 15 45 8 15 15 39 15 52 0 14 6 40 14
59 8 18 18 59 21 89 4 31 11 59 16 62 5 3 9 26 9 52 0 26 5 63 10 82 6 19 15
78 21 130 5 52 16 141 25 198 15 106 26 750 17 1045 -5 152 -8 159 -61 105
-18 -18 -42 -43 -55 -55 -32 -30 -142 -103 -156 -103 -6 0 -30 -13 -53 -30
-22 -16 -52 -30 -65 -30 -13 0 -47 -13 -76 -30 -33 -18 -68 -30 -91 -30 -20 0
-60 -7 -87 -16 -56 -19 -218 -16 -255 4 -12 6 -52 14 -90 18 -38 4 -92 17
-120 30 -28 13 -66 27 -85 31 -44 8 -115 38 -123 52 -4 6 -14 11 -21 11 -13 0
-66 31 -170 98 -22 15 -60 44 -84 64 -24 21 -53 38 -65 38 -14 0 -47 -26 -89
-70z m1213 -2601 c0 -19 -21 -50 -31 -44 -5 4 -9 17 -9 31 0 17 5 24 20 24 11
0 20 -5 20 -11z m-76 -104 c-16 -11 -16 -15 -5 -29 25 -30 -3 -41 -33 -13 -30
28 -32 37 -11 37 8 0 25 10 37 22 15 15 23 18 26 9 2 -7 -4 -18 -14 -26z"/>
<path d="M4237 3946 c-15 -14 -36 -27 -47 -31 -21 -7 -28 -35 -9 -35 19 0 94
49 107 70 11 17 10 20 -6 20 -11 0 -31 -11 -45 -24z"/>
<path d="M4007 3825 c-27 -16 -61 -24 -115 -28 -79 -5 -112 -13 -112 -27 0 -4
6 -10 13 -12 19 -7 180 11 186 20 3 5 23 12 43 15 36 5 87 34 88 50 0 15 -67
4 -103 -18z"/>
<path d="M3450 3787 c0 -8 7 -18 16 -21 24 -9 147 -7 163 3 23 15 -5 23 -95
29 -71 4 -84 2 -84 -11z"/>
<path d="M3662 3758 c5 -15 62 -23 86 -13 15 6 15 8 -3 15 -33 14 -87 12 -83
-2z"/>
<path d="M3363 3723 c-16 -32 -11 -38 17 -23 12 6 20 19 18 27 -5 27 -22 25
-35 -4z"/>
<path d="M3270 3720 c0 -5 12 -10 26 -10 14 0 23 4 19 10 -3 6 -15 10 -26 10
-10 0 -19 -4 -19 -10z"/>
<path d="M5230 3515 c-66 -25 -135 -36 -161 -27 -30 12 -85 4 -100 -14 -11
-14 0 -20 26 -14 31 7 70 -1 90 -20 23 -22 23 -22 34 -2 12 23 95 40 115 23 9
-8 29 -8 65 -1 56 11 102 -3 114 -35 9 -22 22 -19 59 15 22 20 43 30 65 30 42
0 81 -18 88 -42 8 -24 23 -23 45 5 17 20 26 22 115 21 84 -1 98 -4 116 -23 41
-44 54 -17 14 31 -14 16 -25 35 -25 42 0 10 -42 14 -177 16 -98 1 -187 1 -198
1 -58 -5 -203 -3 -225 2 -14 3 -41 0 -60 -8z"/>
<path d="M4615 3490 c3 -5 17 -10 30 -10 13 0 27 5 30 10 4 6 -8 10 -30 10
-22 0 -34 -4 -30 -10z"/>
<path d="M4700 3490 c0 -5 18 -10 39 -10 22 0 43 5 46 10 4 6 -12 10 -39 10
-25 0 -46 -4 -46 -10z"/>
<path d="M4875 3490 c-4 -7 -3 -16 1 -20 13 -12 66 0 61 14 -5 15 -53 20 -62
6z"/>
<path d="M2960 3396 c0 -6 7 -20 15 -30 21 -28 20 -144 -1 -167 -9 -10 -13
-23 -9 -29 11 -18 175 -3 198 18 21 19 22 65 2 82 -11 9 -13 26 -8 71 l6 59
-34 2 c-125 6 -169 4 -169 -6z m131 -42 c10 -12 10 -20 1 -35 -16 -25 -15 -44
3 -59 21 -17 19 -44 -6 -66 -20 -18 -21 -18 -35 1 -8 11 -11 28 -8 39 4 12 7
47 7 79 -1 60 11 73 38 41z"/>
<path d="M3215 3402 c-1 -2 4 -18 13 -35 21 -42 28 -142 12 -162 -19 -23 -4
-45 29 -45 54 0 61 7 54 55 -5 42 -5 44 23 47 38 4 41 39 4 48 -20 5 -25 12
-25 35 0 39 31 46 57 14 14 -19 20 -21 26 -11 5 7 7 24 4 37 -4 24 -6 24 -99
22 -52 -1 -96 -3 -98 -5z"/>
<path d="M3470 3395 c0 -9 7 -27 16 -41 13 -19 16 -42 12 -104 l-5 -79 29 -7
c37 -8 46 1 25 24 -17 19 -23 67 -9 75 16 10 48 -13 72 -52 18 -28 32 -41 48
-41 23 0 23 2 21 76 -3 70 -1 78 21 96 l24 19 -30 24 c-43 35 -92 31 -59 -5 8
-9 18 -31 21 -48 5 -25 3 -33 -11 -38 -13 -5 -30 7 -64 44 -60 66 -111 92
-111 57z"/>
<path d="M3794 3392 c-30 -23 -40 -48 -48 -110 -7 -58 12 -106 46 -115 10 -3
18 -14 18 -25 0 -22 18 -32 55 -32 30 0 39 14 20 30 -18 15 -11 30 14 30 71 0
79 190 10 226 -38 19 -89 17 -115 -4z m90 -53 c3 -17 6 -55 6 -84 0 -51 -9
-65 -41 -65 -16 0 -49 79 -49 118 0 45 14 62 51 62 22 0 28 -6 33 -31z"/>
<path d="M4005 3399 c-4 -6 2 -21 14 -33 12 -12 21 -34 21 -48 0 -43 9 -55 36
-50 13 2 24 0 24 -6 0 -6 24 -34 52 -64 29 -29 52 -58 50 -65 -4 -19 28 -16
35 3 3 9 0 20 -7 24 -10 6 -12 32 -7 107 3 54 8 105 12 114 8 20 -32 33 -70
23 l-25 -6 25 -30 c25 -29 33 -72 16 -82 -17 -11 -39 5 -66 48 -37 58 -94 92
-110 65z"/>
<path d="M4284 3398 c-3 -4 0 -17 6 -29 10 -18 10 -128 -1 -184 -3 -17 1 -20
36 -20 l40 0 -4 86 c-3 76 -1 88 15 97 15 9 17 15 8 29 -12 19 -91 36 -100 21z"/>
<path d="M4615 3400 c-36 -4 -40 -7 -35 -30 2 -14 4 -72 5 -130 0 -102 -1
-104 -24 -110 -35 -8 -51 -38 -28 -54 9 -7 17 -21 17 -30 0 -22 42 -21 63 2
12 13 14 21 6 29 -16 16 -1 34 24 31 18 -2 21 1 18 22 -11 79 -11 233 0 246
18 21 0 31 -46 24z"/>
<path d="M5175 3400 c-22 -4 -34 -8 -27 -9 7 0 21 -15 32 -33 l19 -31 6 26 c4
15 11 27 16 27 5 0 9 7 9 15 0 8 -3 14 -7 14 -5 -1 -26 -5 -48 -9z"/>
<path d="M5511 3397 c-43 -22 -60 -57 -63 -130 -2 -52 1 -71 12 -77 8 -5 24
-16 35 -24 20 -16 20 -16 -4 -35 l-25 -19 62 -4 c34 -1 67 -1 72 0 14 5 12 22
-3 22 -16 0 -60 47 -80 85 -11 22 -14 48 -10 98 5 57 9 67 25 67 32 0 60 -58
54 -115 -2 -27 -7 -60 -11 -72 -9 -28 11 -30 40 -5 17 15 20 29 19 101 l-1 84
-39 18 c-47 22 -52 22 -83 6z"/>
<path d="M4730 3385 c-7 -8 -9 -23 -4 -37 4 -13 6 -39 5 -58 -2 -42 33 -120
55 -120 8 0 20 -13 25 -30 10 -27 15 -30 55 -30 48 0 55 8 24 28 -12 7 -18 17
-15 22 10 16 42 12 49 -6 3 -8 11 -12 17 -8 8 5 6 10 -6 16 -15 9 -15 12 8 37
23 23 25 34 26 114 l0 87 -44 0 c-48 0 -52 -5 -30 -34 21 -28 20 -139 -1 -160
-23 -23 -51 -19 -70 10 -15 22 -16 35 -7 97 5 40 8 75 6 80 -7 13 -80 7 -93
-8z"/>
<path d="M5027 3373 c8 -31 9 -160 2 -181 -6 -20 27 -40 42 -25 9 9 8 20 -4
45 -19 39 -15 48 23 48 21 0 29 -6 34 -23 6 -27 64 -73 76 -61 4 5 6 33 3 62
-4 41 -9 52 -23 52 -10 0 -44 25 -75 55 -63 62 -90 71 -78 28z"/>
<path d="M5309 3398 c-1 -2 -3 -54 -3 -116 l-2 -113 24 3 c27 3 52 60 50 115
-1 17 6 43 15 56 15 23 15 24 -19 41 -31 14 -61 21 -65 14z"/>
<path d="M5731 3389 c-19 -8 -22 -13 -15 -37 4 -15 8 -47 9 -72 3 -112 2 -110
35 -110 33 0 34 2 21 46 -5 17 -5 37 0 46 5 9 4 30 -1 48 -7 25 -6 41 4 62 14
26 13 28 -7 27 -12 0 -33 -5 -46 -10z"/>
<path d="M5840 3336 c0 -36 -4 -46 -20 -51 l-20 -6 20 -29 c11 -15 20 -35 20
-44 0 -20 42 -41 64 -33 22 9 20 44 -3 57 -24 13 -37 48 -22 63 6 6 11 28 11
49 0 34 -3 38 -25 38 -23 0 -25 -4 -25 -44z"/>
<path d="M5250 3338 c0 -36 4 -35 14 5 4 16 2 27 -4 27 -5 0 -10 -14 -10 -32z"/>
<path d="M3388 3209 c-38 -39 -38 -39 -14 -45 36 -9 66 12 66 46 0 42 -10 42
-52 -1z"/>
<path d="M4026 3203 c-18 -25 -18 -26 -1 -39 16 -12 17 -14 2 -20 -10 -3 -17
-13 -17 -21 0 -11 11 -13 48 -11 48 3 65 20 25 26 -27 4 -29 11 -6 27 15 11
15 14 -3 38 -10 15 -21 26 -24 26 -3 0 -14 -11 -24 -26z"/>
<path d="M3054 3139 c-3 -5 -21 -7 -40 -3 -21 4 -34 2 -34 -4 0 -11 111 -20
137 -12 10 4 3 10 -21 17 -22 7 -38 7 -42 2z"/>
<path d="M3340 3139 c-25 -5 -52 -6 -62 -3 -9 2 -19 1 -22 -4 -6 -10 153 -24
168 -15 9 6 -21 34 -33 32 -3 -1 -26 -5 -51 -10z"/>
<path d="M3512 3139 c-33 -13 -18 -29 27 -29 44 0 55 8 40 27 -13 15 -34 16
-67 2z"/>
<path d="M4292 3128 c3 -8 25 -14 57 -16 40 -2 52 0 49 10 -3 8 -25 14 -57 16
-40 2 -52 0 -49 -10z"/>
<path d="M5027 3134 c-14 -14 6 -24 49 -24 32 0 44 4 42 13 -5 13 -79 22 -91
11z"/>
<path d="M5197 3134 c-11 -11 5 -34 23 -34 20 0 43 23 33 33 -8 9 -48 9 -56 1z"/>
<path d="M5293 3133 c-34 -12 -6 -23 57 -23 50 0 70 4 70 13 0 12 -98 19 -127
10z"/>
<path d="M5720 3133 c-44 -6 -64 -22 -29 -25 92 -5 118 -5 130 3 7 4 11 11 7
14 -8 9 -68 13 -108 8z"/>
<path d="M3829 2946 c28 -29 53 -33 71 -11 14 17 10 19 -55 30 l-40 7 24 -26z"/>
<path d="M2984 2936 c-7 -19 3 -36 22 -36 10 0 14 8 12 22 -4 26 -26 36 -34
14z"/>
<path d="M4702 2898 c6 -18 28 -21 28 -4 0 9 -7 16 -16 16 -9 0 -14 -5 -12
-12z"/>
<path d="M3780 2864 c-43 -15 -64 -32 -81 -66 l-19 -38 37 -20 c21 -11 52 -31
68 -45 25 -21 28 -27 15 -35 -22 -14 -46 -12 -60 5 -16 19 -34 19 -50 0 -33
-39 55 -104 123 -91 39 7 57 35 32 48 -19 11 -20 38 -1 38 22 0 28 16 20 55
-5 30 -14 39 -53 58 -46 22 -63 49 -42 70 8 8 18 4 35 -12 30 -28 59 -22 54
11 -2 18 -10 23 -33 25 -16 1 -37 0 -45 -3z"/>
<path d="M3977 2863 c-44 -11 -78 -163 -43 -192 8 -7 17 -22 20 -35 5 -22 10
-24 46 -19 40 6 56 -9 24 -21 -26 -10 -5 -26 35 -26 48 0 71 22 53 51 -7 10
-12 28 -12 39 0 11 -7 20 -15 20 -8 0 -15 -4 -15 -10 0 -16 -38 -12 -66 6 -23
16 -25 21 -19 73 9 78 14 91 34 91 24 0 65 -45 58 -64 -8 -20 30 -43 46 -27 7
7 6 16 -6 29 -10 10 -17 35 -17 55 l0 37 -52 -1 c-29 -1 -61 -3 -71 -6z"/>
<path d="M4163 2854 c-3 -8 2 -29 11 -48 21 -44 22 -134 1 -142 -20 -8 -19
-37 3 -62 10 -13 32 -22 57 -24 40 -3 40 -3 37 31 -1 18 -11 45 -22 59 -11 13
-20 31 -20 38 0 20 38 38 54 25 9 -7 16 -7 24 1 8 8 15 8 27 -2 19 -16 19 -54
0 -70 -16 -13 -20 -40 -7 -40 5 0 14 -11 20 -25 10 -21 19 -25 51 -25 22 0 42
4 45 8 6 11 -25 82 -36 82 -4 0 -8 41 -8 90 0 71 3 92 15 96 27 11 6 21 -36
18 -51 -3 -52 -5 -39 -39 7 -20 7 -31 -1 -41 -12 -14 -56 -19 -83 -8 -19 7
-21 45 -4 62 15 15 11 18 -40 25 -32 4 -45 2 -49 -9z"/>
<path d="M4833 2863 c-48 -6 -88 -58 -96 -124 -6 -51 -5 -55 28 -90 29 -29 41
-35 65 -31 29 4 41 -10 20 -23 -16 -10 -1 -25 24 -25 12 0 33 11 46 25 23 25
23 25 2 25 -28 0 -34 13 -17 36 12 17 16 17 36 6 21 -14 22 -13 14 20 -5 18
-10 58 -11 88 -2 30 -3 58 -3 63 -1 4 -7 7 -15 7 -7 0 -19 7 -26 15 -7 8 -18
14 -24 13 -6 0 -25 -3 -43 -5z m32 -43 c9 -17 15 -55 15 -95 0 -62 -1 -65 -24
-65 -37 0 -45 19 -41 105 3 94 1 85 20 85 8 0 21 -13 30 -30z"/>
<path d="M5051 2862 c-41 -3 -43 -4 -36 -30 14 -52 17 -162 5 -177 -7 -9 -9
-26 -5 -45 6 -28 9 -30 54 -30 27 0 69 -3 95 -6 33 -5 46 -3 46 6 0 6 -9 14
-20 17 -15 4 -19 13 -17 37 2 26 -1 30 -18 28 -38 -6 -58 -3 -66 10 -14 21
-10 131 5 160 17 32 15 34 -43 30z"/>
<path d="M4512 2830 c-12 -16 -27 -52 -33 -81 -11 -49 -10 -53 18 -93 25 -35
34 -41 61 -38 36 4 44 -13 11 -21 -35 -9 -11 -27 36 -27 35 0 47 4 56 21 9 18
8 24 -5 31 -17 10 -22 38 -6 38 13 0 40 65 40 96 0 12 -4 26 -10 29 -5 3 -10
16 -10 29 0 35 -20 46 -80 46 -51 0 -58 -3 -78 -30z m106 -110 c-3 -54 -4 -55
-33 -55 -29 0 -30 2 -38 60 -6 40 -5 70 2 89 l12 29 30 -34 c27 -30 30 -39 27
-89z"/>
<path d="M4585 2510 c-4 -7 -18 -9 -30 -6 -17 4 -28 0 -37 -13 -7 -10 -25 -21
-38 -23 -18 -2 -26 -10 -28 -29 -2 -21 -12 -30 -45 -43 -24 -9 -52 -16 -64
-16 -12 0 -25 -5 -29 -11 -3 -6 -22 -18 -41 -26 -32 -13 -37 -12 -54 3 -18 16
-19 15 -29 -10 -5 -15 -10 -31 -10 -36 0 -5 -13 -16 -28 -24 -16 -8 -34 -22
-41 -30 -18 -22 -29 -20 -33 6 -4 30 -26 34 -37 6 -6 -16 -5 -28 6 -40 13 -15
12 -19 -6 -37 -12 -12 -26 -21 -31 -21 -6 0 -18 -16 -27 -35 -9 -19 -20 -35
-24 -35 -15 0 -16 -40 -1 -71 8 -19 25 -56 38 -84 26 -57 64 -175 64 -202 0
-10 7 -27 15 -37 8 -11 15 -29 15 -41 0 -12 5 -26 11 -32 7 -7 20 -38 31 -70
20 -60 52 -103 75 -103 8 0 31 9 53 20 22 11 46 20 55 20 8 0 32 11 53 25 20
13 63 33 95 44 31 11 67 27 79 35 12 9 31 16 42 16 11 0 27 6 35 14 21 18 191
106 205 106 7 0 18 6 24 13 7 6 45 23 84 37 39 14 76 32 81 41 7 12 5 40 -7
95 -9 44 -19 94 -23 112 -3 18 -9 35 -14 38 -15 9 -10 27 5 21 15 -6 46 22 46
41 0 16 -43 15 -59 0 -17 -17 -39 13 -48 64 -3 21 -10 41 -14 44 -15 9 -10 63
7 72 14 8 14 10 0 21 -14 11 -16 11 -16 -4 0 -31 -24 -9 -33 31 -4 21 -12 43
-17 48 -6 6 -10 19 -11 30 0 23 -38 56 -86 75 -28 12 -36 11 -58 -3 -31 -20
-54 -20 -76 0 -12 11 -19 12 -24 4z m186 -82 c10 -13 18 -33 19 -45 0 -12 4
-24 9 -27 5 -3 12 -23 16 -43 4 -21 10 -42 15 -48 4 -5 10 -28 14 -50 4 -22
13 -53 20 -70 34 -75 46 -107 46 -121 0 -9 9 -27 20 -41 11 -14 20 -34 20 -45
0 -10 7 -29 15 -42 27 -41 11 -56 -61 -56 -53 0 -67 -4 -90 -25 -15 -14 -39
-25 -54 -25 -17 0 -45 -16 -80 -46 -67 -57 -86 -46 -39 22 25 37 28 46 13 39
-10 -4 -29 -10 -42 -13 -34 -7 -49 -45 -32 -78 23 -42 4 -59 -68 -59 -47 0
-67 -5 -91 -23 -16 -12 -35 -22 -42 -22 -6 0 -27 -13 -46 -30 -18 -16 -40 -30
-47 -30 -7 0 -21 -9 -31 -20 -21 -23 -45 -26 -45 -6 0 8 -11 28 -25 44 -14 17
-25 41 -25 54 0 13 -7 33 -15 44 -8 10 -15 29 -15 40 0 28 -85 278 -112 331
l-22 41 30 34 c31 36 94 81 136 97 14 5 28 17 32 26 5 14 14 16 49 11 36 -6
48 -3 71 15 23 18 32 20 47 11 29 -18 39 -15 50 18 6 16 19 32 30 35 10 4 19
12 19 19 0 13 61 46 85 46 8 0 21 10 29 22 12 17 24 21 58 20 24 -1 50 2 58 8
25 17 61 11 81 -12z"/>
<path d="M4682 2261 c2 -7 7 -12 11 -12 12 1 9 15 -3 20 -7 2 -11 -2 -8 -8z"/>
<path d="M4410 2191 c0 -17 5 -33 10 -36 6 -3 10 -17 10 -31 0 -13 4 -32 9
-42 38 -74 61 -131 61 -150 0 -12 5 -22 10 -22 6 0 10 -11 10 -25 0 -23 35
-54 47 -41 8 8 12 146 4 146 -4 0 -12 -5 -19 -12 -9 -9 -15 -9 -24 0 -9 9 -7
13 5 18 9 3 17 12 17 20 0 8 5 14 10 14 6 0 10 8 10 18 -1 15 -2 15 -15 -3
-15 -19 -16 -19 -37 3 -17 17 -20 24 -10 34 30 30 3 64 -27 36 -11 -11 -13 -7
-8 22 3 19 7 42 9 50 2 10 -5 15 -19 15 -11 0 -25 3 -29 8 -15 15 -24 6 -24
-22z"/>
<path d="M4700 2085 c0 -9 9 -15 21 -15 18 0 19 2 9 15 -7 8 -16 15 -21 15 -5
0 -9 -7 -9 -15z"/>
<path d="M4297 2084 c-9 -10 2 -24 19 -24 8 0 14 7 14 15 0 15 -21 21 -33 9z"/>
<path d="M4360 2050 c-13 -9 -13 -11 0 -20 22 -15 30 -12 30 10 0 22 -8 25
-30 10z"/>
<path d="M4640 2045 c0 -8 7 -15 15 -15 8 0 15 7 15 15 0 8 -7 15 -15 15 -8 0
-15 -7 -15 -15z"/>
<path d="M4762 2048 c3 -7 13 -15 22 -16 12 -3 17 1 14 10 -3 7 -13 15 -22 16
-12 3 -17 -1 -14 -10z"/>
<path d="M4345 2000 c-8 -13 4 -32 16 -25 12 8 12 35 0 35 -6 0 -13 -4 -16
-10z"/>
<path d="M4295 1870 c-3 -5 1 -10 9 -10 8 0 18 5 21 10 3 6 -1 10 -9 10 -8 0
-18 -4 -21 -10z"/>
<path d="M4730 1860 c0 -13 11 -13 30 0 12 8 11 10 -7 10 -13 0 -23 -4 -23
-10z"/>
<path d="M4400 1830 c0 -5 -7 -10 -15 -10 -8 0 -15 -4 -15 -10 0 -16 19 -12
42 10 19 17 19 20 5 20 -9 0 -17 -4 -17 -10z"/>
<path d="M5880 2436 c0 -14 24 -66 30 -66 15 0 22 20 16 46 -4 15 -14 24 -26
24 -11 0 -20 -2 -20 -4z"/>
<path d="M4102 2291 c2 -7 7 -12 11 -12 12 1 9 15 -3 20 -7 2 -11 -2 -8 -8z"/>
<path d="M5422 2126 c1 -10 8 -17 13 -17 15 1 12 24 -3 29 -9 3 -13 -2 -10
-12z"/>
<path d="M5422 1995 c-7 -14 -12 -51 -12 -82 0 -31 -5 -74 -11 -97 -6 -22 -15
-59 -21 -81 -5 -22 -18 -60 -28 -85 -10 -25 -21 -54 -25 -65 -7 -19 -7 -19
-16 3 -5 14 -4 49 3 90 14 86 16 161 3 164 -5 1 -12 -7 -14 -18 -1 -10 -9 -26
-16 -34 -7 -8 -15 -44 -18 -80 -7 -89 -22 -151 -40 -162 -9 -4 -19 -22 -22
-40 -4 -17 -16 -45 -26 -62 -10 -17 -22 -37 -25 -45 -4 -7 -58 -65 -120 -128
l-113 -114 -163 -4 c-89 -3 -167 -10 -172 -15 -15 -15 -72 -12 -86 5 -7 9 -29
15 -55 15 -26 0 -48 6 -55 15 -7 8 -26 15 -42 15 -19 0 -41 11 -61 30 -18 16
-37 30 -43 30 -6 0 -21 11 -34 25 -13 14 -36 32 -51 39 l-27 13 13 -31 c8 -18
24 -35 41 -41 15 -5 44 -26 65 -46 21 -20 52 -39 70 -43 18 -3 40 -13 49 -21
9 -8 34 -19 56 -24 l39 -9 -55 -1 c-39 -1 -68 5 -95 20 -22 12 -52 21 -67 20
-15 -1 -31 5 -35 13 -4 8 -24 18 -43 23 -25 7 -36 16 -38 31 -2 15 -10 22 -26
22 -12 0 -27 5 -33 11 -13 13 -56 2 -50 -14 5 -16 119 -96 137 -97 8 0 29 -9
45 -20 17 -11 40 -20 52 -20 12 0 50 -7 85 -16 49 -13 88 -15 178 -10 244 14
360 31 401 59 13 10 36 17 52 17 17 0 26 4 22 10 -7 12 59 80 77 80 15 0 218
201 218 216 0 7 7 20 16 28 22 22 84 142 99 193 7 23 10 53 8 67 -3 14 1 36 9
49 11 15 15 52 16 125 0 56 -1 102 -2 102 -2 0 -8 -11 -14 -25z"/>
<path d="M5506 1863 c-10 -108 -27 -217 -37 -235 -4 -9 -17 -42 -28 -74 -11
-31 -27 -64 -35 -73 -8 -9 -24 -37 -35 -64 -11 -26 -28 -50 -37 -54 -18 -7
-54 -39 -54 -48 0 -14 29 -2 51 21 13 14 34 30 47 35 12 5 22 16 22 25 0 10
11 31 23 48 41 55 77 122 93 176 19 64 25 301 8 307 -7 2 -14 -21 -18 -64z"/>
<path d="M4510 1255 c-7 -9 -11 -18 -8 -20 7 -8 68 16 68 26 0 15 -47 10 -60
-6z"/>
<path d="M4590 1238 c0 -10 9 -22 19 -28 25 -13 71 -13 71 0 0 6 -16 10 -35
10 -22 0 -38 6 -44 18 -10 16 -10 16 -11 0z"/>
<path d="M3767 1183 c-4 -3 -7 -10 -7 -14 0 -10 79 -91 101 -104 10 -5 43 -27
73 -48 30 -20 79 -44 108 -53 29 -8 73 -21 98 -29 130 -39 248 -44 380 -14 30
6 73 11 95 10 22 -1 49 3 60 8 42 19 160 40 169 31 17 -17 43 -11 49 10 4 17
14 20 65 20 54 0 61 3 78 28 11 15 22 34 25 42 3 8 21 15 42 16 44 3 80 21 74
37 -9 30 -65 16 -152 -38 -22 -13 -54 -24 -72 -25 -17 0 -35 -4 -38 -10 -3 -5
-23 -10 -44 -10 -20 0 -46 -7 -57 -15 -12 -9 -43 -14 -85 -15 -36 0 -88 -7
-114 -15 -69 -20 -464 -20 -492 0 -10 8 -29 15 -43 15 -38 1 -156 63 -222 117
-32 26 -58 51 -58 56 0 9 -24 9 -33 0z"/>
<path d="M4718 903 c-10 -2 -18 -9 -18 -14 0 -14 16 -11 30 6 7 8 11 14 9 14
-2 -1 -12 -3 -21 -6z"/>
</g>
</svg>
